<svg xmlns="http://www.w3.org/2000/svg" version="1.2" viewBox="0 0 142 140" width="142" height="140"  xmlns:xlink="http://www.w3.org/1999/xlink" preserveAspectRatio="xMinYMin meet"><rect id="svgEditorBackground" x="0" y="0" width="142" height="140" style="fill:none;stroke:none"/><style>.a{stroke:rgb(255,255,255)}.b{fill:none;stroke:rgb(255,255,255);stroke-width:6}</style><circle class="a" cx="68.9" cy="66.9" r="18" style="fill:white"/><circle class="a" cx="120" cy="98.1" r="18" style="fill:white"/><path class="b" d="m84.5 76.4c6.4 3.9 13.7 8.3 20 12.2"/><circle class="a" cx="69.8" cy="118.3" r="18" style="fill:white"/><path class="b" d="m69.2 85.2c0.1 4.8 0.2 10 0.3 14.9"/><circle class="a" cx="22" cy="85.2" r="18" style="fill:white"/><path class="b" d="m52 73.5c-4.2 1.6-8.7 3.4-13 5"/><circle class="a" cx="105.4" cy="21.9" r="18" style="fill:white"/><path class="b" d="m80.5,52.7c4.3,-5.4,9.3,-11.5,13.6,-16.8"/><path class="b" d="m103.3 104.8c-5.4 2.2-11.3 4.6-16.7 6.7"/><path class="b" d="m36.8 95.5c5.7 3.9 12.2 8.4 18 12.4"/></svg>