<svg xmlns="http://www.w3.org/2000/svg" xmlns:xlink="http://www.w3.org/1999/xlink" style="margin:auto;background:0 0;display:block;shape-rendering:auto" width="200" height="200" preserveAspectRatio="xMidYMid" viewBox="0 0 100 100"><g transform="rotate(0 50 50)"><rect width="6" height="12" x="47" y="24" fill="#fff" rx="2.76" ry="2.76"><animate attributeName="opacity" begin="-0.8571428571428571s" dur="1s" keyTimes="0;1" repeatCount="indefinite" values="1;0"/></rect></g><g transform="rotate(51.42857142857143 50 50)"><rect width="6" height="12" x="47" y="24" fill="#fff" rx="2.76" ry="2.76"><animate attributeName="opacity" begin="-0.7142857142857143s" dur="1s" keyTimes="0;1" repeatCount="indefinite" values="1;0"/></rect></g><g transform="rotate(102.85714285714286 50 50)"><rect width="6" height="12" x="47" y="24" fill="#fff" rx="2.76" ry="2.76"><animate attributeName="opacity" begin="-0.5714285714285714s" dur="1s" keyTimes="0;1" repeatCount="indefinite" values="1;0"/></rect></g><g transform="rotate(154.28571428571428 50 50)"><rect width="6" height="12" x="47" y="24" fill="#fff" rx="2.76" ry="2.76"><animate attributeName="opacity" begin="-0.42857142857142855s" dur="1s" keyTimes="0;1" repeatCount="indefinite" values="1;0"/></rect></g><g transform="rotate(205.71428571428572 50 50)"><rect width="6" height="12" x="47" y="24" fill="#fff" rx="2.76" ry="2.76"><animate attributeName="opacity" begin="-0.2857142857142857s" dur="1s" keyTimes="0;1" repeatCount="indefinite" values="1;0"/></rect></g><g transform="rotate(257.14285714285717 50 50)"><rect width="6" height="12" x="47" y="24" fill="#fff" rx="2.76" ry="2.76"><animate attributeName="opacity" begin="-0.14285714285714285s" dur="1s" keyTimes="0;1" repeatCount="indefinite" values="1;0"/></rect></g><g transform="rotate(308.57142857142856 50 50)"><rect width="6" height="12" x="47" y="24" fill="#fff" rx="2.76" ry="2.76"><animate attributeName="opacity" begin="0s" dur="1s" keyTimes="0;1" repeatCount="indefinite" values="1;0"/></rect></g></svg>